<?xml version="1.0" encoding="UTF-8" standalone="no"?>
<!-- Created with Inkscape (http://www.inkscape.org/) -->

<svg
   xmlns:dc="http://purl.org/dc/elements/1.1/"
   xmlns:cc="http://creativecommons.org/ns#"
   xmlns:rdf="http://www.w3.org/1999/02/22-rdf-syntax-ns#"
   xmlns:svg="http://www.w3.org/2000/svg"
   xmlns="http://www.w3.org/2000/svg"
   xmlns:sodipodi="http://sodipodi.sourceforge.net/DTD/sodipodi-0.dtd"
   xmlns:inkscape="http://www.inkscape.org/namespaces/inkscape"
   width="744.09448819"
   height="1052.3622047"
   id="svg3379"
   version="1.1"
   inkscape:version="0.48.4 r9939"
   sodipodi:docname="New document 7">
  <defs
     id="defs3381" />
  <sodipodi:namedview
     id="base"
     pagecolor="#ffffff"
     bordercolor="#666666"
     borderopacity="1.0"
     inkscape:pageopacity="0.0"
     inkscape:pageshadow="2"
     inkscape:zoom="15.839192"
     inkscape:cx="355.73654"
     inkscape:cy="517.02801"
     inkscape:document-units="px"
     inkscape:current-layer="layer1"
     showgrid="false"
     inkscape:window-width="472"
     inkscape:window-height="383"
     inkscape:window-x="862"
     inkscape:window-y="413"
     inkscape:window-maximized="0" />
  <metadata
     id="metadata3384">
    <rdf:RDF>
      <cc:Work
         rdf:about="">
        <dc:format>image/svg+xml</dc:format>
        <dc:type
           rdf:resource="http://purl.org/dc/dcmitype/StillImage" />
        <dc:title></dc:title>
      </cc:Work>
    </rdf:RDF>
  </metadata>
  <g
     inkscape:label="Layer 1"
     inkscape:groupmode="layer"
     id="layer1">
    <path
       inkscape:connector-curvature="0"
       d="m 375,544.02343 c 6.44,0 11.66125,-5.22125 11.66125,-11.66125 0,-6.43875 -5.22125,-11.66 -11.66125,-11.66 -6.44,0 -11.66125,5.22125 -11.66125,11.66 0,6.44 5.22125,11.66125 11.66125,11.66125"
       style="fill:#ffffff;fill-opacity:1;fill-rule:nonzero;stroke:none"
       id="path142"
       inkscape:export-filename="/home/sari/Desktop/cell1.png"
       inkscape:export-xdpi="90"
       inkscape:export-ydpi="90" />
    <path
       inkscape:connector-curvature="0"
       d="m 375,544.02343 0,0.62375 c 6.78625,0 12.285,-5.5 12.28625,-12.285 -0.001,-6.78625 -5.5,-12.285 -12.28625,-12.285 -6.785,0 -12.285,5.49875 -12.28625,12.285 0.001,6.785 5.50125,12.285 12.28625,12.285 l 0,-1.24875 c -3.04875,-0.001 -5.80375,-1.235 -7.80375,-3.23375 -1.9975,-1.99875 -3.23125,-4.7525 -3.2325,-7.8025 0.001,-3.04875 1.235,-5.805 3.2325,-7.80375 1.99875,-1.9975 4.755,-3.23125 7.80375,-3.2325 3.05,0.001 5.805,1.235 7.80375,3.2325 1.9975,1.99875 3.2325,4.755 3.2325,7.80375 0,3.05 -1.235,5.80375 -3.2325,7.8025 -1.99875,1.99875 -4.75375,3.2325 -7.80375,3.23375 l 0,0.625"
       style="fill:#2a4b9b;fill-opacity:1;fill-rule:nonzero;stroke:none"
       id="path144"
       inkscape:export-filename="/home/sari/Desktop/cell1.png"
       inkscape:export-xdpi="90"
       inkscape:export-ydpi="90" />
    <path
       inkscape:connector-curvature="0"
       d="m 370.1675,533.44093 c 0,1.3325 -1.08,2.4125 -2.41125,2.4125 -1.3325,0 -2.41125,-1.08 -2.41125,-2.4125 0,-1.33125 1.07875,-2.41 2.41125,-2.41 1.33125,0 2.41125,1.07875 2.41125,2.41 z m 7.14625,-9.90125 c -1.19,0 -2.15625,0.96625 -2.15625,2.15625 0,1.19125 0.96625,2.15625 2.15625,2.15625 1.19125,0 2.15625,-0.965 2.15625,-2.15625 0,-1.19 -0.965,-2.15625 -2.15625,-2.15625 z m -2.73,5.3925 c -1.535,0 -2.77875,1.24375 -2.77875,2.77875 0,1.53375 1.24375,2.77875 2.77875,2.77875 1.53375,0 2.77875,-1.245 2.77875,-2.77875 0,-1.535 -1.245,-2.77875 -2.77875,-2.77875 z m 5.575,4.58625 c -1.80875,0 -3.27625,1.46625 -3.27625,3.27625 0,1.80875 1.4675,3.27625 3.27625,3.27625 1.81,0 3.27625,-1.4675 3.27625,-3.27625 0,-1.81 -1.46625,-3.27625 -3.27625,-3.27625 z m -1.35625,1.72375 -2.6825,-2.68375 -0.4225,0.4225 2.6825,2.68375 0.4225,-0.4225 z m -3.27375,-4.9025 1.65375,-3.415 -0.5375,-0.26 -1.65375,3.415 0.5375,0.26 z m -3.06625,1.31875 -3.5875,1.23375 0.19375,0.565 3.5875,-1.23375 -0.19375,-0.565"
       style="fill:#2a4b9b;fill-opacity:1;fill-rule:nonzero;stroke:none"
       id="path146"
       inkscape:export-filename="/home/sari/Desktop/cell1.png"
       inkscape:export-xdpi="90"
       inkscape:export-ydpi="90" />
    <path
       inkscape:connector-curvature="0"
       d="m 369.93125,532.45718 -1.18625,0.40625 0.23875,0.83125 1.16625,-0.5425 -0.0263,-0.1675 -0.0312,-0.14125 -0.0412,-0.145 -0.0425,-0.11875 -0.0275,-0.0675 -0.05,-0.055"
       style="fill:#2a4b9b;fill-opacity:1;fill-rule:nonzero;stroke:none"
       id="path148"
       inkscape:export-filename="/home/sari/Desktop/cell1.png"
       inkscape:export-xdpi="90"
       inkscape:export-ydpi="90" />
  </g>
</svg>
